<svg width="56" height="56" viewBox="0 0 56 56" fill="none" xmlns="http://www.w3.org/2000/svg">
<path d="M27.44 31.36C28.6771 31.36 29.68 30.3571 29.68 29.12C29.68 27.8829 28.6771 26.88 27.44 26.88C26.2029 26.88 25.2 27.8829 25.2 29.12C25.2 30.3571 26.2029 31.36 27.44 31.36Z" fill="black"/>
<path d="M18.5864 26.88C18.0791 26.875 17.5851 27.0423 17.1853 27.3546C16.7855 27.667 16.5035 28.1058 16.3856 28.5992L12.88 43.1592C12.8112 43.4453 12.7995 43.7421 12.8454 44.0327C12.8914 44.3233 12.9941 44.602 13.1478 44.8529C13.3014 45.1038 13.503 45.322 13.741 45.495C13.979 45.668 14.2487 45.7924 14.5348 45.8612C14.8208 45.93 15.1177 45.9417 15.4083 45.8958C15.6989 45.8498 15.9776 45.7471 16.2285 45.5934C16.4794 45.4397 16.6976 45.2382 16.8706 45.0002C17.0436 44.7622 17.168 44.4925 17.2368 44.2064L20.72 29.68C20.8047 29.3519 20.8139 29.0088 20.7469 28.6765C20.6798 28.3443 20.5383 28.0317 20.3329 27.7621C20.1274 27.4925 19.8635 27.2731 19.561 27.1203C19.2585 26.9675 18.9252 26.8853 18.5864 26.88Z" fill="black"/>
<path d="M42.924 29.988L37.9904 27.0256C37.8582 25.8976 37.5006 24.8077 36.9387 23.8207C36.3769 22.8336 35.6224 21.9696 34.72 21.28V19.04C34.72 16.6637 33.776 14.3846 32.0957 12.7043C30.4154 11.024 28.1364 10.08 25.76 10.08H14.4928C14.2073 10.0793 13.9244 10.135 13.6604 10.2439C13.3965 10.3528 13.1567 10.5128 12.9548 10.7148C12.7529 10.9167 12.5928 11.1565 12.4839 11.4204C12.375 11.6844 12.3193 11.9673 12.32 12.2528V14.56C12.32 16.9363 13.264 19.2154 14.9443 20.8957C16.6247 22.576 18.9037 23.52 21.28 23.52H28C29.5124 23.5976 30.9372 24.2535 31.9795 25.3522C33.0218 26.4508 33.602 27.908 33.6 29.4224V43.68C33.6 44.2741 33.836 44.8438 34.2561 45.2639C34.6762 45.684 35.2459 45.92 35.84 45.92H39.2C40.0834 45.9201 40.9313 45.5722 41.5602 44.9518C42.189 44.3313 42.5482 43.4881 42.56 42.6048C42.56 39.1608 39.956 36.4 38.7128 35.28L42.924 32.7544C43.1657 32.6133 43.3662 32.4114 43.5056 32.1687C43.6449 31.926 43.7182 31.651 43.7182 31.3712C43.7182 31.0914 43.6449 30.8164 43.5056 30.5737C43.3662 30.331 43.1657 30.1291 42.924 29.988V29.988ZM28 19.04H21.28C20.0918 19.04 18.9523 18.568 18.1122 17.7278C17.272 16.8877 16.8 15.7482 16.8 14.56H25.76C26.9482 14.56 28.0877 15.032 28.9279 15.8722C29.768 16.7123 30.24 17.8518 30.24 19.04H28Z" fill="black"/>
</svg>
