<svg width="150" height="159" viewBox="0 0 150 159" fill="none" xmlns="http://www.w3.org/2000/svg">
<path d="M1.50993 120.464L18.5592 102.848C19.6077 101.8 20.4465 100.835 21.0757 99.9543C21.7048 99.0735 22.1661 98.2556 22.4597 97.5007C22.7533 96.7038 22.9001 95.9069 22.9001 95.11C22.9001 93.3904 22.3339 92.0483 21.2015 91.0836C20.111 90.077 18.664 89.5737 16.8605 89.5737C15.099 89.5737 13.5052 90.0561 12.0792 91.0207C10.6951 91.9434 9.353 93.4743 8.05281 95.6133L1.44702 89.8883C3.20857 86.9105 5.45244 84.6666 8.17864 83.1567C10.9048 81.6468 14.0295 80.8918 17.5526 80.8918C20.6143 80.8918 23.2566 81.4581 25.4795 82.5905C27.7444 83.7229 29.4849 85.3376 30.7012 87.4347C31.9595 89.5318 32.5886 91.9854 32.5886 94.7955C32.5886 96.557 32.3579 98.1927 31.8966 99.7026C31.4352 101.171 30.6803 102.639 29.6317 104.106C28.6251 105.532 27.262 107.105 25.5424 108.825L13.7149 120.589L1.50993 120.464ZM1.50993 126V120.464L9.87727 117.57H33.4694V126H1.50993Z" fill="black"/>
<path d="M56.5238 126.692C52.9587 126.692 49.7292 125.727 46.8353 123.798C43.9413 121.869 41.6555 119.184 39.9778 115.745C38.3421 112.264 37.5243 108.259 37.5243 103.729C37.5243 99.1574 38.3421 95.1729 39.9778 91.7757C41.6136 88.3365 43.8574 85.6732 46.7095 83.7858C49.5615 81.8565 52.791 80.8918 56.3979 80.8918C60.0469 80.8918 63.2973 81.8565 66.1494 83.7858C69.0014 85.6732 71.2452 88.3365 72.881 91.7757C74.5586 95.2149 75.3975 99.2203 75.3975 103.792C75.3975 108.364 74.5586 112.369 72.881 115.808C71.2452 119.247 69.0014 121.932 66.1494 123.861C63.3393 125.748 60.1307 126.692 56.5238 126.692ZM56.4609 117.947C58.3063 117.947 59.9001 117.423 61.2422 116.374C62.5843 115.284 63.6119 113.69 64.3249 111.593C65.0798 109.454 65.4573 106.854 65.4573 103.792C65.4573 100.688 65.0798 98.0879 64.3249 95.9908C63.6119 93.8937 62.5843 92.3209 61.2422 91.2724C59.9001 90.1819 58.2853 89.6367 56.3979 89.6367C54.5945 89.6367 53.0007 90.1609 51.6166 91.2095C50.2745 92.258 49.2469 93.8308 48.5339 95.9279C47.8209 98.025 47.4644 100.625 47.4644 103.729C47.4644 106.833 47.8209 109.433 48.5339 111.53C49.2469 113.627 50.2745 115.221 51.6166 116.311C53.0007 117.402 54.6154 117.947 56.4609 117.947Z" fill="black"/>
<path d="M78.9215 120.464L95.9707 102.848C97.0193 101.8 97.8581 100.835 98.4872 99.9543C99.1164 99.0735 99.5777 98.2556 99.8713 97.5007C100.165 96.7038 100.312 95.9069 100.312 95.11C100.312 93.3904 99.7455 92.0483 98.6131 91.0836C97.5226 90.077 96.0756 89.5737 94.2721 89.5737C92.5106 89.5737 90.9168 90.0561 89.4908 91.0207C88.1067 91.9434 86.7646 93.4743 85.4644 95.6133L78.8586 89.8883C80.6202 86.9105 82.864 84.6666 85.5902 83.1567C88.3164 81.6468 91.4411 80.8918 94.9642 80.8918C98.0259 80.8918 100.668 81.4581 102.891 82.5905C105.156 83.7229 106.897 85.3376 108.113 87.4347C109.371 89.5318 110 91.9854 110 94.7955C110 96.557 109.77 98.1927 109.308 99.7026C108.847 101.171 108.092 102.639 107.043 104.106C106.037 105.532 104.674 107.105 102.954 108.825L91.1265 120.589L78.9215 120.464ZM78.9215 126V120.464L87.2889 117.57H110.881V126H78.9215Z" fill="black"/>
<path d="M114.433 120.464L131.482 102.848C132.53 101.8 133.369 100.835 133.998 99.9543C134.627 99.0735 135.089 98.2556 135.382 97.5007C135.676 96.7038 135.823 95.9069 135.823 95.11C135.823 93.3904 135.257 92.0483 134.124 91.0836C133.034 90.077 131.587 89.5737 129.783 89.5737C128.022 89.5737 126.428 90.0561 125.002 91.0207C123.618 91.9434 122.276 93.4743 120.975 95.6133L114.37 89.8883C116.131 86.9105 118.375 84.6666 121.101 83.1567C123.827 81.6468 126.952 80.8918 130.475 80.8918C133.537 80.8918 136.179 81.4581 138.402 82.5905C140.667 83.7229 142.408 85.3376 143.624 87.4347C144.882 89.5318 145.511 91.9854 145.511 94.7955C145.511 96.557 145.281 98.1927 144.819 99.7026C144.358 101.171 143.603 102.639 142.554 104.106C141.548 105.532 140.185 107.105 138.465 108.825L126.638 120.589L114.433 120.464ZM114.433 126V120.464L122.8 117.57H146.392V126H114.433Z" fill="black"/>
<path d="M2.13721 158V135.811H7.07149V158H2.13721ZM5.90864 158V153.726H18.0715V158H5.90864ZM5.90864 148.729V144.611H16.9715V148.729H5.90864ZM5.90864 140.054V135.811H17.9143V140.054H5.90864Z" fill="black"/>
<path d="M26.2351 158V136.126H31.1693V158H26.2351ZM19.2893 140.117V135.811H38.1151V140.117H19.2893Z" fill="black"/>
<path d="M40.8705 158V135.811H44.3905L53.1276 149.42H51.3362L60.0419 135.811H63.5933V158H58.659V144.14L59.539 144.36L53.8505 153.223H50.5819L44.9248 144.36L45.7733 144.14V158H40.8705Z" fill="black"/>
<path d="M78.4401 158.377C76.7639 158.377 75.2135 158.084 73.7887 157.497C72.3849 156.911 71.1487 156.093 70.0801 155.046C69.0116 153.998 68.1839 152.783 67.5973 151.4C67.0106 149.996 66.7173 148.488 66.7173 146.874C66.7173 145.24 67.0106 143.731 67.5973 142.349C68.1839 140.966 69.0011 139.761 70.0487 138.734C71.0963 137.687 72.322 136.88 73.7258 136.314C75.1506 135.728 76.7011 135.434 78.3773 135.434C80.0325 135.434 81.562 135.728 82.9658 136.314C84.3906 136.88 85.6268 137.687 86.6744 138.734C87.743 139.761 88.5706 140.976 89.1573 142.38C89.7439 143.763 90.0373 145.271 90.0373 146.906C90.0373 148.519 89.7439 150.028 89.1573 151.431C88.5706 152.814 87.7535 154.03 86.7058 155.077C85.6582 156.104 84.422 156.911 82.9973 157.497C81.5935 158.084 80.0744 158.377 78.4401 158.377ZM78.3773 153.883C79.6973 153.883 80.8496 153.59 81.8344 153.003C82.8401 152.416 83.6154 151.599 84.1601 150.551C84.7049 149.483 84.9773 148.257 84.9773 146.874C84.9773 145.827 84.8201 144.884 84.5058 144.046C84.1916 143.187 83.7411 142.453 83.1544 141.846C82.5677 141.217 81.8658 140.746 81.0487 140.431C80.2525 140.096 79.362 139.929 78.3773 139.929C77.0573 139.929 75.8944 140.222 74.8887 140.809C73.9039 141.374 73.1392 142.181 72.5944 143.229C72.0497 144.255 71.7773 145.471 71.7773 146.874C71.7773 147.922 71.9344 148.875 72.2487 149.734C72.563 150.593 73.003 151.337 73.5687 151.966C74.1554 152.573 74.8573 153.045 75.6744 153.38C76.4916 153.715 77.3925 153.883 78.3773 153.883Z" fill="black"/>
<path d="M93.1696 158V135.811H98.1039V158H93.1696Z" fill="black"/>
<path d="M104.954 158.346C104.137 158.346 103.456 158.063 102.911 157.497C102.367 156.931 102.094 156.251 102.094 155.454C102.094 154.616 102.367 153.925 102.911 153.38C103.456 152.814 104.137 152.531 104.954 152.531C105.792 152.531 106.473 152.814 106.997 153.38C107.542 153.925 107.814 154.616 107.814 155.454C107.814 156.251 107.542 156.931 106.997 157.497C106.473 158.063 105.792 158.346 104.954 158.346Z" fill="black"/>
<path d="M111.8 158V135.811H116.734V158H111.8ZM115.571 149.294V145.051H126.665V149.294H115.571ZM115.571 140.054V135.811H127.168V140.054H115.571Z" fill="black"/>
<path d="M134.109 148.854V145.209H138.792C139.777 145.209 140.531 144.957 141.055 144.454C141.599 143.951 141.872 143.271 141.872 142.411C141.872 141.615 141.61 140.955 141.086 140.431C140.562 139.908 139.808 139.646 138.823 139.646H134.109V135.811H139.389C140.856 135.811 142.144 136.094 143.255 136.66C144.365 137.205 145.235 137.97 145.863 138.954C146.492 139.939 146.806 141.071 146.806 142.349C146.806 143.648 146.492 144.79 145.863 145.774C145.235 146.738 144.355 147.492 143.223 148.037C142.092 148.582 140.761 148.854 139.232 148.854H134.109ZM130.338 158V135.811H135.272V158H130.338ZM142.406 158L135.492 148.446L140.018 147.22L148.252 158H142.406Z" fill="black"/>
<path d="M72.9441 3.00001H149.476V60H72.9441V3.00001Z" fill="#E23022"/>
<path d="M0 3.00001H72.9441V60H0V3.00001Z" fill="#010092"/>
<path d="M72.9441 3.00001H149.476V60H72.9441V3.00001Z" fill="#E23022"/>
<path d="M0 3.00001H72.9441V60H0V3.00001Z" fill="#010092"/>
<path d="M91.9502 29.338H102.861C102.011 34.647 99.5284 42.5142 94.8292 49.2415L94.8385 49.2343L106.07 60.6266H80.9948C78.0875 61.7483 74.8485 62.3916 71.2516 62.3916C49.3499 62.3916 49.4254 44.339 49.4297 43.3248C49.4297 43.3136 49.4297 43.3045 49.4297 43.2975C49.4297 43.2788 49.4293 43.2523 49.4288 43.2184C49.4114 42.0888 49.2666 32.7183 59.8593 27.7334C58.4152 26.0219 55.5271 21.2832 55.5271 16.0203C55.5271 9.44162 60.0198 0.295708 72.5352 0.616617C85.0507 0.937526 89.0001 10.5 88.0001 18C86.9575 23.5 86.0134 26.4498 76.8675 30.6216C80.7184 34.6009 85.5321 39.5536 87.4575 41.5325C88.5807 40.035 91.0516 35.4994 91.9502 29.338Z" fill="white"/>
</svg>
