<svg width="205" height="36" viewBox="0 0 205 36" fill="none" xmlns="http://www.w3.org/2000/svg">
<path d="M0.152 30.776L13.16 17.336C13.96 16.536 14.6 15.8 15.08 15.128C15.56 14.456 15.912 13.832 16.136 13.256C16.36 12.648 16.472 12.04 16.472 11.432C16.472 10.12 16.04 9.096 15.176 8.36C14.344 7.592 13.24 7.208 11.864 7.208C10.52 7.208 9.304 7.576 8.216 8.312C7.16 9.016 6.136 10.184 5.144 11.816L0.104 7.448C1.448 5.176 3.16 3.464 5.24 2.312C7.32 1.16 9.704 0.584 12.392 0.584C14.728 0.584 16.744 1.016 18.44 1.88C20.168 2.744 21.496 3.976 22.424 5.576C23.384 7.176 23.864 9.048 23.864 11.192C23.864 12.536 23.688 13.784 23.336 14.936C22.984 16.056 22.408 17.176 21.608 18.296C20.84 19.384 19.8 20.584 18.488 21.896L9.464 30.872L0.152 30.776ZM0.152 35V30.776L6.536 28.568H24.536V35H0.152ZM42.1258 35.528C39.4058 35.528 36.9418 34.792 34.7338 33.32C32.5258 31.848 30.7818 29.8 29.5018 27.176C28.2538 24.52 27.6298 21.464 27.6298 18.008C27.6298 14.52 28.2538 11.48 29.5018 8.888C30.7498 6.264 32.4618 4.232 34.6378 2.792C36.8138 1.32 39.2778 0.584 42.0298 0.584C44.8138 0.584 47.2938 1.32 49.4698 2.792C51.6458 4.232 53.3578 6.264 54.6058 8.888C55.8858 11.512 56.5258 14.568 56.5258 18.056C56.5258 21.544 55.8858 24.6 54.6058 27.224C53.3578 29.848 51.6458 31.896 49.4698 33.368C47.3258 34.808 44.8778 35.528 42.1258 35.528ZM42.0778 28.856C43.4858 28.856 44.7018 28.456 45.7258 27.656C46.7498 26.824 47.5338 25.608 48.0778 24.008C48.6538 22.376 48.9418 20.392 48.9418 18.056C48.9418 15.688 48.6538 13.704 48.0778 12.104C47.5338 10.504 46.7498 9.304 45.7258 8.504C44.7018 7.672 43.4698 7.256 42.0298 7.256C40.6538 7.256 39.4378 7.656 38.3818 8.456C37.3578 9.256 36.5738 10.456 36.0298 12.056C35.4858 13.656 35.2138 15.64 35.2138 18.008C35.2138 20.376 35.4858 22.36 36.0298 23.96C36.5738 25.56 37.3578 26.776 38.3818 27.608C39.4378 28.44 40.6698 28.856 42.0778 28.856ZM59.2145 30.776L72.2225 17.336C73.0225 16.536 73.6625 15.8 74.1425 15.128C74.6225 14.456 74.9745 13.832 75.1985 13.256C75.4225 12.648 75.5345 12.04 75.5345 11.432C75.5345 10.12 75.1025 9.096 74.2385 8.36C73.4065 7.592 72.3025 7.208 70.9265 7.208C69.5825 7.208 68.3665 7.576 67.2785 8.312C66.2225 9.016 65.1985 10.184 64.2065 11.816L59.1665 7.448C60.5105 5.176 62.2225 3.464 64.3025 2.312C66.3825 1.16 68.7665 0.584 71.4545 0.584C73.7905 0.584 75.8065 1.016 77.5025 1.88C79.2305 2.744 80.5585 3.976 81.4865 5.576C82.4465 7.176 82.9265 9.048 82.9265 11.192C82.9265 12.536 82.7505 13.784 82.3985 14.936C82.0465 16.056 81.4705 17.176 80.6705 18.296C79.9025 19.384 78.8625 20.584 77.5505 21.896L68.5265 30.872L59.2145 30.776ZM59.2145 35V30.776L65.5985 28.568H83.5985V35H59.2145ZM109.588 35L94.0363 17.912C92.8203 16.568 91.9403 15.304 91.3963 14.12C90.8523 12.904 90.5803 11.576 90.5803 10.136C90.5803 8.408 91.0123 6.824 91.8763 5.384C92.7723 3.912 93.9723 2.744 95.4763 1.88C97.0123 0.983997 98.7883 0.535997 100.804 0.535997C102.372 0.535997 103.764 0.775998 104.98 1.256C106.196 1.704 107.252 2.296 108.148 3.032C109.044 3.736 109.732 4.488 110.212 5.288L105.316 9.944C104.676 9.08 104.004 8.424 103.3 7.976C102.628 7.528 101.828 7.304 100.9 7.304C99.9403 7.304 99.1403 7.592 98.5003 8.168C97.8923 8.712 97.5883 9.4 97.5883 10.232C97.5883 10.936 97.7323 11.56 98.0203 12.104C98.3403 12.648 98.7883 13.256 99.3643 13.928L118.18 35H109.588ZM98.4523 35.528C96.1483 35.528 94.1323 35.08 92.4043 34.184C90.7083 33.256 89.3803 32.008 88.4203 30.44C87.4923 28.84 87.0283 27.064 87.0283 25.112C87.0283 23 87.5883 21.128 88.7083 19.496C89.8283 17.832 91.5083 16.488 93.7483 15.464L96.8683 20.216C95.9083 20.664 95.1883 21.256 94.7083 21.992C94.2283 22.728 93.9883 23.608 93.9883 24.632C93.9883 25.464 94.1643 26.2 94.5163 26.84C94.9003 27.448 95.4443 27.928 96.1483 28.28C96.8523 28.632 97.6843 28.808 98.6443 28.808C99.7323 28.808 100.66 28.584 101.428 28.136C102.228 27.656 102.9 27 103.444 26.168L108.388 31.256C107.844 31.96 107.06 32.648 106.036 33.32C105.044 33.96 103.892 34.488 102.58 34.904C101.3 35.32 99.9243 35.528 98.4523 35.528ZM128.92 35V1.112H134.296L147.64 21.896H144.904L158.2 1.112H163.624V35H156.088V13.832L157.432 14.168L148.744 27.704H143.752L135.112 14.168L136.408 13.832V35H128.92ZM180.683 35.528C178.283 35.528 176.107 35 174.155 33.944C172.235 32.856 170.715 31.384 169.595 29.528C168.475 27.672 167.915 25.592 167.915 23.288C167.915 20.984 168.475 18.92 169.595 17.096C170.715 15.272 172.235 13.832 174.155 12.776C176.075 11.688 178.251 11.144 180.683 11.144C183.115 11.144 185.291 11.672 187.211 12.728C189.131 13.784 190.651 15.24 191.771 17.096C192.891 18.92 193.451 20.984 193.451 23.288C193.451 25.592 192.891 27.672 191.771 29.528C190.651 31.384 189.131 32.856 187.211 33.944C185.291 35 183.115 35.528 180.683 35.528ZM180.683 28.856C181.739 28.856 182.667 28.632 183.467 28.184C184.267 27.704 184.875 27.048 185.291 26.216C185.739 25.352 185.963 24.376 185.963 23.288C185.963 22.2 185.739 21.256 185.291 20.456C184.843 19.624 184.219 18.984 183.419 18.536C182.651 18.056 181.739 17.816 180.683 17.816C179.659 17.816 178.747 18.056 177.947 18.536C177.147 18.984 176.523 19.624 176.075 20.456C175.627 21.288 175.403 22.248 175.403 23.336C175.403 24.392 175.627 25.352 176.075 26.216C176.523 27.048 177.147 27.704 177.947 28.184C178.747 28.632 179.659 28.856 180.683 28.856ZM197.108 35V11.672H204.452V35H197.108ZM200.804 8.456C199.652 8.456 198.692 8.072 197.924 7.304C197.188 6.504 196.82 5.544 196.82 4.424C196.82 3.272 197.188 2.312 197.924 1.544C198.692 0.775999 199.652 0.391999 200.804 0.391999C201.956 0.391999 202.9 0.775999 203.636 1.544C204.372 2.312 204.74 3.272 204.74 4.424C204.74 5.544 204.372 6.504 203.636 7.304C202.9 8.072 201.956 8.456 200.804 8.456Z" fill="black"/>
</svg>
