<svg width="56" height="56" viewBox="0 0 56 56" fill="none" xmlns="http://www.w3.org/2000/svg">
<path d="M44.6488 21L43.5288 19.04L42.4088 17.1024C41.866 16.1589 40.9983 15.4453 39.9677 15.0949C38.9371 14.7445 37.8142 14.7813 36.8088 15.1984L35.6888 15.652C35.4125 15.4803 35.1325 15.3179 34.8488 15.1648L34.72 13.9664C34.5753 12.8839 34.0402 11.8914 33.2152 11.1757C32.3902 10.46 31.3321 10.0704 30.24 10.08H25.76C24.6746 10.0799 23.6261 10.4739 22.8093 11.1887C21.9925 11.9035 21.463 12.8906 21.3192 13.9664L21.1624 15.1536C20.8749 15.3067 20.5949 15.4691 20.3224 15.6408L19.2024 15.1816C18.197 14.7645 17.0741 14.7277 16.0435 15.0781C15.013 15.4285 14.1452 16.1421 13.6024 17.0856L12.4824 19.0232L11.3624 20.9832C10.8166 21.9204 10.6292 23.0238 10.8352 24.0887C11.0412 25.1536 11.6264 26.1075 12.4824 26.7736L13.44 27.496C13.44 27.664 13.44 27.832 13.44 28C13.44 28.168 13.44 28.3267 13.44 28.476L12.488 29.2096C11.632 29.8757 11.0468 30.8297 10.8408 31.8945C10.6348 32.9594 10.8222 34.0628 11.368 35L12.488 36.96L13.608 38.8976C14.1508 39.8411 15.0186 40.5547 16.0491 40.9051C17.0797 41.2555 18.2026 41.2187 19.208 40.8016L20.328 40.348C20.6043 40.5197 20.8843 40.6821 21.168 40.8352L21.28 42.0336C21.4247 43.1162 21.9598 44.1086 22.7848 44.8243C23.6098 45.54 24.6679 45.9296 25.76 45.92H30.24C31.3254 45.9201 32.3739 45.5261 33.1907 44.8113C34.0075 44.0965 34.537 43.1094 34.6808 42.0336L34.8376 40.8464C35.1251 40.6933 35.4051 40.5309 35.6776 40.3592L36.7976 40.8184C37.803 41.2355 38.9259 41.2723 39.9565 40.9219C40.9871 40.5715 41.8548 39.8579 42.3976 38.9144L43.5176 36.9768L44.6376 35.0168C45.1835 34.0796 45.3708 32.9762 45.1648 31.9113C44.9589 30.8465 44.3736 29.8925 43.5176 29.2264L42.56 28.504C42.56 28.336 42.56 28.168 42.56 28C42.56 27.832 42.56 27.6733 42.56 27.524L43.512 26.7904C44.3707 26.1267 44.9593 25.1738 45.1684 24.1088C45.3775 23.0438 45.1929 21.9391 44.6488 21ZM37.9624 26.5104C38.1217 27.5065 38.1217 28.5215 37.9624 29.5176C37.9146 29.8108 37.9454 30.1114 38.0516 30.3889C38.1579 30.6663 38.3358 30.9106 38.5672 31.0968L40.7624 32.7768L39.6424 34.7368L38.5224 36.6744L35.952 35.616C35.6807 35.5059 35.3847 35.4707 35.0951 35.514C34.8055 35.5574 34.5328 35.6777 34.3056 35.8624C33.5069 36.5013 32.6157 37.0149 31.6624 37.3856C31.3876 37.4895 31.1458 37.6655 30.9625 37.8951C30.7793 38.1247 30.6612 38.3994 30.6208 38.6904L30.24 41.44H25.76L25.3904 38.6848C25.3496 38.3954 25.2319 38.1223 25.0497 37.8938C24.8675 37.6653 24.6274 37.4898 24.3544 37.3856C23.3939 37.0096 22.4968 36.4883 21.6944 35.84C21.4672 35.6533 21.1938 35.5314 20.903 35.487C20.6123 35.4427 20.315 35.4776 20.0424 35.588L17.4832 36.6464L16.3632 34.7088L15.2432 32.7488L17.444 31.0688C17.6755 30.8837 17.854 30.6406 17.9612 30.3642C18.0684 30.0879 18.1006 29.788 18.0544 29.4952C17.8951 28.4991 17.8951 27.4841 18.0544 26.488C18.1022 26.1948 18.0714 25.8942 17.9652 25.6168C17.859 25.3393 17.681 25.0951 17.4496 24.9088L15.2544 23.2288L16.3744 21.2688L17.4944 19.3312L20.0648 20.3896C20.3362 20.4997 20.6321 20.5349 20.9217 20.4916C21.2113 20.4483 21.484 20.3279 21.7112 20.1432C22.5099 19.5043 23.4012 18.9907 24.3544 18.62C24.6292 18.5161 24.871 18.3402 25.0543 18.1106C25.2376 17.881 25.3556 17.6062 25.396 17.3152L25.76 14.56H30.24L30.6096 17.3152C30.6504 17.6046 30.7681 17.8777 30.9503 18.1062C31.1325 18.3347 31.3726 18.5102 31.6456 18.6144C32.6061 18.9905 33.5033 19.5117 34.3056 20.16C34.5329 20.3467 34.8063 20.4686 35.097 20.513C35.3877 20.5573 35.685 20.5224 35.9576 20.412L38.5168 19.3536L39.6368 21.2912L40.7568 23.2512L38.556 24.9312C38.3266 25.1187 38.1509 25.3636 38.0466 25.6409C37.9424 25.9182 37.9133 26.2182 37.9624 26.5104Z" fill="black"/>
<path d="M28 30.8C29.5464 30.8 30.8 29.5464 30.8 28C30.8 26.4536 29.5464 25.2 28 25.2C26.4536 25.2 25.2 26.4536 25.2 28C25.2 29.5464 26.4536 30.8 28 30.8Z" fill="black"/>
</svg>
