<svg width="56" height="56" viewBox="0 0 56 56" fill="none" xmlns="http://www.w3.org/2000/svg">
<path d="M15.4 32.424L17.36 33.04V36.96C17.3713 38.9504 18.1393 40.862 19.5082 42.3071C20.8771 43.7521 22.7444 44.6224 24.7313 44.7413C26.7182 44.8603 28.6759 44.2191 30.2075 42.9477C31.739 41.6764 32.7296 39.8701 32.9784 37.8952L36.7136 39.06C37.0218 39.1561 37.3427 39.2052 37.6656 39.2056H38.64C43.4168 39.2056 45.92 32.1608 45.92 25.2056C45.92 18.2504 43.4168 11.2 38.64 11.2H37.6656C37.3428 11.2005 37.0218 11.2496 36.7136 11.3456L15.4 17.976C13.859 18.4555 12.5117 19.4152 11.5549 20.7148C10.5982 22.0145 10.0821 23.5861 10.0821 25.2C10.0821 26.8139 10.5982 28.3855 11.5549 29.6851C12.5117 30.9848 13.859 31.9445 15.4 32.424ZM38.64 15.68C39.2952 15.7752 41.44 18.9392 41.44 25.2C41.44 31.4608 39.2896 34.6248 38.64 34.72C37.9848 34.6248 35.84 31.4608 35.84 25.2C35.84 18.9392 37.9904 15.7752 38.64 15.68ZM28.56 36.96C28.56 37.8511 28.206 38.7058 27.5759 39.3359C26.9458 39.966 26.0911 40.32 25.2 40.32C24.3089 40.32 23.4542 39.966 22.8241 39.3359C22.194 38.7058 21.84 37.8511 21.84 36.96V34.4288L28.56 36.5176V36.96ZM16.7272 22.2544L32.5248 17.36C31.7336 19.8974 31.3407 22.5422 31.36 25.2C31.3397 27.8575 31.7307 30.5021 32.5192 33.04H32.48L16.7272 28.1456C16.0992 27.9497 15.5503 27.5582 15.1605 27.0283C14.7707 26.4984 14.5605 25.8578 14.5605 25.2C14.5605 24.5422 14.7707 23.9016 15.1605 23.3717C15.5503 22.8418 16.0992 22.4503 16.7272 22.2544Z" fill="black"/>
</svg>
