<svg xmlns="http://www.w3.org/2000/svg" data-name="Layer 1" viewBox="0 0 100 100" x="0px" y="0px">
    <title>Artboard 27</title>
    <path d="M70,67.72a4,4,0,0,1-2.42,3.68l-2.15.92a4,4,0,1,0,3.15,7.35l2.15-.92a12,12,0,0,0,7.27-11V61.05a10.44,10.44,0,0,1,2.28-6.5l.22-.27a6.85,6.85,0,0,0,0-8.56l-.22-.28A10.44,10.44,0,0,1,78,38.95V32.28a12,12,0,0,0-7.27-11l-2.15-.92a4,4,0,0,0-3.15,7.35l2.15.92A4,4,0,0,1,70,32.28v6.67A18.47,18.47,0,0,0,73.69,50,18.47,18.47,0,0,0,70,61.05Z"></path>
    <path d="M19.72,54.55A10.44,10.44,0,0,1,22,61.05v6.67a12,12,0,0,0,7.27,11l2.15.92a4,4,0,1,0,3.15-7.35l-2.15-.92A4,4,0,0,1,30,67.72V61.05A18.47,18.47,0,0,0,26.31,50,18.47,18.47,0,0,0,30,38.95V32.28a4,4,0,0,1,2.42-3.68l2.15-.92a4,4,0,0,0-3.15-7.35l-2.15.92a12,12,0,0,0-7.27,11v6.67a10.44,10.44,0,0,1-2.28,6.5l-.22.27a6.85,6.85,0,0,0,0,8.56Z"></path>
    <circle cx="50" cy="69" r="4"></circle>
    <path d="M42,45a4,4,0,0,0,4-4,4,4,0,1,1,5.89,3.53A11.57,11.57,0,0,0,46,54.84V55a4,4,0,0,0,8,0v-.16a3.66,3.66,0,0,1,1.68-3.27A12,12,0,1,0,38,41,4,4,0,0,0,42,45Z"></path>
</svg>
