<svg width="56" height="56" viewBox="0 0 56 56" fill="none" xmlns="http://www.w3.org/2000/svg">
<path d="M17.92 11.76C16.1378 11.76 14.4285 12.468 13.1683 13.7282C11.908 14.9885 11.2 16.6977 11.2 18.48V20.72C11.2 22.5023 11.908 24.2115 13.1683 25.4718C14.4285 26.732 16.1378 27.44 17.92 27.44C19.7023 27.44 21.4115 26.732 22.6718 25.4718C23.932 24.2115 24.64 22.5023 24.64 20.72V18.48C24.64 16.6977 23.932 14.9885 22.6718 13.7282C21.4115 12.468 19.7023 11.76 17.92 11.76ZM20.16 20.72C20.16 21.3141 19.924 21.8838 19.5039 22.3039C19.0838 22.724 18.5141 22.96 17.92 22.96C17.3259 22.96 16.7562 22.724 16.3361 22.3039C15.916 21.8838 15.68 21.3141 15.68 20.72V18.48C15.68 17.8859 15.916 17.3162 16.3361 16.8961C16.7562 16.476 17.3259 16.24 17.92 16.24C18.5141 16.24 19.0838 16.476 19.5039 16.8961C19.924 17.3162 20.16 17.8859 20.16 18.48V20.72Z" fill="black"/>
<path d="M44.8 37.52V35.28C44.8 33.4977 44.092 31.7885 42.8317 30.5282C41.5715 29.268 39.8622 28.56 38.08 28.56C36.2977 28.56 34.5885 29.268 33.3282 30.5282C32.068 31.7885 31.36 33.4977 31.36 35.28V37.52C31.36 39.3023 32.068 41.0115 33.3282 42.2718C34.5885 43.532 36.2977 44.24 38.08 44.24C39.8622 44.24 41.5715 43.532 42.8317 42.2718C44.092 41.0115 44.8 39.3023 44.8 37.52ZM40.32 37.52C40.32 38.1141 40.084 38.6838 39.6639 39.1039C39.2438 39.524 38.6741 39.76 38.08 39.76C37.4859 39.76 36.9161 39.524 36.4961 39.1039C36.076 38.6838 35.84 38.1141 35.84 37.52V35.28C35.84 34.6859 36.076 34.1162 36.4961 33.6961C36.9161 33.276 37.4859 33.04 38.08 33.04C38.6741 33.04 39.2438 33.276 39.6639 33.6961C40.084 34.1162 40.32 34.6859 40.32 35.28V37.52Z" fill="black"/>
<path d="M36.344 14.2632L16.184 38.9032C15.8075 39.3629 15.629 39.9533 15.6878 40.5445C15.7466 41.1358 16.0379 41.6795 16.4976 42.056C16.9573 42.4325 17.5477 42.611 18.1389 42.5522C18.7302 42.4933 19.2739 42.2021 19.6504 41.7424L39.8104 17.1024C40.1869 16.6427 40.3654 16.0523 40.3066 15.4611C40.2477 14.8698 39.9565 14.3261 39.4968 13.9496C39.0371 13.5731 38.4467 13.3946 37.8554 13.4534C37.2642 13.5122 36.7205 13.8035 36.344 14.2632V14.2632Z" fill="black"/>
</svg>
