<?xml version="1.0" encoding="UTF-8"?>
<svg width="1200pt" height="1200pt" version="1.1" viewBox="0 0 1200 1200" xmlns="http://www.w3.org/2000/svg">
 <path d="m336 960h528c25.461 0 49.879-10.113 67.883-28.117 18.004-18.004 28.117-42.422 28.117-67.883v-528c0-25.461-10.113-49.879-28.117-67.883-18.004-18.004-42.422-28.117-67.883-28.117h-528c-25.461 0-49.879 10.113-67.883 28.117-18.004 18.004-28.117 42.422-28.117 67.883v528c0 25.461 10.113 49.879 28.117 67.883 18.004 18.004 42.422 28.117 67.883 28.117zm-24-96v-120h144v144h-120c-6.3633 0-12.469-2.5273-16.969-7.0312-4.5039-4.5-7.0312-10.605-7.0312-16.969zm360-336v144h-144v-144zm-144-72v-144h144v144zm360 216h-144v-144h144zm-216 72v144h-144v-144zm192 144h-120v-144h144v120c0 6.3633-2.5273 12.469-7.0312 16.969-4.5 4.5039-10.605 7.0312-16.969 7.0312zm24-552v120h-144v-144h120c6.3633 0 12.469 2.5273 16.969 7.0312 4.5039 4.5 7.0312 10.605 7.0312 16.969zm-576 0c0-6.3633 2.5273-12.469 7.0312-16.969 4.5-4.5039 10.605-7.0312 16.969-7.0312h120v144h-144zm144 192v144h-144v-144z" fill="black"/>
</svg>
