<svg width="472" height="97" viewBox="0 0 472 97" fill="none" xmlns="http://www.w3.org/2000/svg">
<rect x="279" width="193" height="96" fill="#E10D0E"/>
<path d="M287.644 76V44.896H297.436V76H287.644ZM307.548 76V57.824C307.548 56.2453 307.057 55.0293 306.076 54.176C305.137 53.28 303.964 52.832 302.556 52.832C301.574 52.832 300.7 53.0453 299.932 53.472C299.164 53.856 298.545 54.4107 298.076 55.136C297.649 55.8613 297.436 56.7573 297.436 57.824L293.66 56.16C293.66 53.6853 294.193 51.5733 295.26 49.824C296.326 48.032 297.777 46.6667 299.612 45.728C301.446 44.7467 303.516 44.256 305.82 44.256C307.996 44.256 309.937 44.7467 311.644 45.728C313.393 46.7093 314.78 48.0747 315.804 49.824C316.828 51.5733 317.34 53.664 317.34 56.096V76H307.548ZM327.452 76V57.824C327.452 56.2453 326.961 55.0293 325.98 54.176C325.041 53.28 323.868 52.832 322.46 52.832C321.478 52.832 320.604 53.0453 319.836 53.472C319.068 53.856 318.449 54.4107 317.979 55.136C317.553 55.8613 317.34 56.7573 317.34 57.824L311.708 57.056C311.793 54.4107 312.412 52.1493 313.564 50.272C314.758 48.352 316.316 46.88 318.236 45.856C320.198 44.7893 322.396 44.256 324.828 44.256C327.217 44.256 329.329 44.768 331.164 45.792C333.041 46.7733 334.513 48.2027 335.58 50.08C336.689 51.9147 337.244 54.1333 337.244 56.736V76H327.452ZM358.495 76.704C355.295 76.704 352.393 76 349.791 74.592C347.231 73.1413 345.204 71.1787 343.711 68.704C342.217 66.2293 341.471 63.456 341.471 60.384C341.471 57.312 342.217 54.56 343.711 52.128C345.204 49.696 347.231 47.776 349.791 46.368C352.351 44.9173 355.252 44.192 358.495 44.192C361.737 44.192 364.639 44.896 367.199 46.304C369.759 47.712 371.785 49.6533 373.279 52.128C374.772 54.56 375.519 57.312 375.519 60.384C375.519 63.456 374.772 66.2293 373.279 68.704C371.785 71.1787 369.759 73.1413 367.199 74.592C364.639 76 361.737 76.704 358.495 76.704ZM358.495 67.808C359.903 67.808 361.14 67.5093 362.207 66.912C363.273 66.272 364.084 65.3973 364.639 64.288C365.236 63.136 365.535 61.8347 365.535 60.384C365.535 58.9333 365.236 57.6747 364.639 56.608C364.041 55.4987 363.209 54.6453 362.143 54.048C361.119 53.408 359.903 53.088 358.495 53.088C357.129 53.088 355.913 53.408 354.847 54.048C353.78 54.6453 352.948 55.4987 352.351 56.608C351.753 57.7173 351.455 58.9973 351.455 60.448C351.455 61.856 351.753 63.136 352.351 64.288C352.948 65.3973 353.78 66.272 354.847 66.912C355.913 67.5093 357.129 67.808 358.495 67.808ZM380.394 76V44.896H390.186V76H380.394ZM385.322 40.608C383.786 40.608 382.506 40.096 381.482 39.072C380.5 38.0053 380.01 36.7253 380.01 35.232C380.01 33.696 380.5 32.416 381.482 31.392C382.506 30.368 383.786 29.856 385.322 29.856C386.858 29.856 388.116 30.368 389.098 31.392C390.079 32.416 390.57 33.696 390.57 35.232C390.57 36.7253 390.079 38.0053 389.098 39.072C388.116 40.096 386.858 40.608 385.322 40.608ZM403.225 76.704C401.561 76.704 400.174 76.128 399.065 74.976C397.956 73.824 397.401 72.4373 397.401 70.816C397.401 69.1093 397.956 67.7013 399.065 66.592C400.174 65.44 401.561 64.864 403.225 64.864C404.932 64.864 406.318 65.44 407.385 66.592C408.494 67.7013 409.049 69.1093 409.049 70.816C409.049 72.4373 408.494 73.824 407.385 74.976C406.318 76.128 404.932 76.704 403.225 76.704ZM418.424 76V42.208C418.424 39.6907 418.979 37.4293 420.088 35.424C421.24 33.376 422.84 31.776 424.888 30.624C426.936 29.4293 429.368 28.832 432.184 28.832C434.317 28.832 436.173 29.1947 437.752 29.92C439.373 30.6027 440.781 31.5627 441.976 32.8L435.832 38.944C435.405 38.5173 434.915 38.1973 434.36 37.984C433.848 37.728 433.229 37.6 432.504 37.6C431.181 37.6 430.136 37.984 429.368 38.752C428.6 39.52 428.216 40.5653 428.216 41.888V76H418.424ZM411.576 53.216V44.896H437.176V53.216H411.576ZM441.206 76V44.896H450.998V76H441.206ZM450.998 58.912L446.902 55.712C447.713 52.0853 449.078 49.2693 450.998 47.264C452.918 45.2587 455.585 44.256 458.998 44.256C460.491 44.256 461.793 44.4907 462.902 44.96C464.054 45.3867 465.057 46.0693 465.91 47.008L460.086 54.368C459.659 53.8987 459.126 53.536 458.486 53.28C457.846 53.024 457.121 52.896 456.31 52.896C454.689 52.896 453.387 53.408 452.406 54.432C451.467 55.4133 450.998 56.9067 450.998 58.912Z" fill="white"/>
<rect width="193" height="96" fill="#001091"/>
<path d="M6.848 69.224L27.715 47.664C28.9983 46.3807 30.025 45.2 30.795 44.122C31.565 43.044 32.1297 42.043 32.489 41.119C32.8483 40.1437 33.028 39.1683 33.028 38.193C33.028 36.0883 32.335 34.4457 30.949 33.265C29.6143 32.033 27.8433 31.417 25.636 31.417C23.48 31.417 21.5293 32.0073 19.784 33.188C18.09 34.3173 16.4473 36.191 14.856 38.809L6.771 31.802C8.927 28.1573 11.6733 25.411 15.01 23.563C18.3467 21.715 22.171 20.791 26.483 20.791C30.2303 20.791 33.4643 21.484 36.185 22.87C38.957 24.256 41.0873 26.2323 42.576 28.799C44.116 31.3657 44.886 34.3687 44.886 37.808C44.886 39.964 44.6037 41.966 44.039 43.814C43.4743 45.6107 42.5503 47.4073 41.267 49.204C40.035 50.9493 38.3667 52.8743 36.262 54.979L21.786 69.378L6.848 69.224ZM6.848 76V69.224L17.089 65.682H45.964V76H6.848ZM74.1809 76.847C69.8176 76.847 65.8649 75.6663 62.3229 73.305C58.7809 70.9437 55.9832 67.6583 53.9299 63.449C51.9279 59.1883 50.9269 54.286 50.9269 48.742C50.9269 43.1467 51.9279 38.27 53.9299 34.112C55.9319 29.9027 58.6782 26.643 62.1689 24.333C65.6596 21.9717 69.6122 20.791 74.0269 20.791C78.4929 20.791 82.4712 21.9717 85.9619 24.333C89.4526 26.643 92.1989 29.9027 94.2009 34.112C96.2542 38.3213 97.2809 43.2237 97.2809 48.819C97.2809 54.4143 96.2542 59.3167 94.2009 63.526C92.1989 67.7353 89.4526 71.0207 85.9619 73.382C82.5226 75.692 78.5956 76.847 74.1809 76.847ZM74.1039 66.144C76.3626 66.144 78.3132 65.5023 79.9559 64.219C81.5986 62.8843 82.8562 60.9337 83.7289 58.367C84.6529 55.749 85.1149 52.5663 85.1149 48.819C85.1149 45.0203 84.6529 41.8377 83.7289 39.271C82.8562 36.7043 81.5986 34.7793 79.9559 33.496C78.3132 32.1613 76.3369 31.494 74.0269 31.494C71.8196 31.494 69.8689 32.1357 68.1749 33.419C66.5322 34.7023 65.2746 36.6273 64.4019 39.194C63.5292 41.7607 63.0929 44.9433 63.0929 48.742C63.0929 52.5407 63.5292 55.7233 64.4019 58.29C65.2746 60.8567 66.5322 62.8073 68.1749 64.142C69.8689 65.4767 71.8452 66.144 74.1039 66.144ZM101.594 69.224L122.461 47.664C123.744 46.3807 124.771 45.2 125.541 44.122C126.311 43.044 126.876 42.043 127.235 41.119C127.594 40.1437 127.774 39.1683 127.774 38.193C127.774 36.0883 127.081 34.4457 125.695 33.265C124.36 32.033 122.589 31.417 120.382 31.417C118.226 31.417 116.275 32.0073 114.53 33.188C112.836 34.3173 111.193 36.191 109.602 38.809L101.517 31.802C103.673 28.1573 106.419 25.411 109.756 23.563C113.093 21.715 116.917 20.791 121.229 20.791C124.976 20.791 128.21 21.484 130.931 22.87C133.703 24.256 135.833 26.2323 137.322 28.799C138.862 31.3657 139.632 34.3687 139.632 37.808C139.632 39.964 139.35 41.966 138.785 43.814C138.22 45.6107 137.296 47.4073 136.013 49.204C134.781 50.9493 133.113 52.8743 131.008 54.979L116.532 69.378L101.594 69.224ZM101.594 76V69.224L111.835 65.682H140.71V76H101.594ZM145.057 69.224L165.924 47.664C167.207 46.3807 168.234 45.2 169.004 44.122C169.774 43.044 170.339 42.043 170.698 41.119C171.057 40.1437 171.237 39.1683 171.237 38.193C171.237 36.0883 170.544 34.4457 169.158 33.265C167.823 32.033 166.052 31.417 163.845 31.417C161.689 31.417 159.738 32.0073 157.993 33.188C156.299 34.3173 154.656 36.191 153.065 38.809L144.98 31.802C147.136 28.1573 149.882 25.411 153.219 23.563C156.556 21.715 160.38 20.791 164.692 20.791C168.439 20.791 171.673 21.484 174.394 22.87C177.166 24.256 179.296 26.2323 180.785 28.799C182.325 31.3657 183.095 34.3687 183.095 37.808C183.095 39.964 182.813 41.966 182.248 43.814C181.683 45.6107 180.759 47.4073 179.476 49.204C178.244 50.9493 176.576 52.8743 174.471 54.979L159.995 69.378L145.057 69.224ZM145.057 76V69.224L155.298 65.682H184.173V76H145.057Z" fill="white"/>
<path d="M231.031 0H193V67.5065V96.1176H224.51C218.161 96.1141 212.605 94.8835 207.841 92.4259C203.159 89.8768 199.493 86.4487 196.843 82.1417C194.281 77.7467 193 72.8683 193 67.5065C193 61.7052 194.546 56.5631 197.638 52.0802C200.15 48.3666 203.683 45.2333 208.236 42.6801C206.915 40.8292 205.856 39.0402 205.059 37.3132C203.557 33.973 202.806 30.3252 202.806 26.3697C202.806 21.6232 203.998 17.2722 206.384 13.3167C208.857 9.27335 212.17 6.06504 216.322 3.69176C220.562 1.23059 225.465 0 231.031 0Z" fill="#001091"/>
<path d="M279 96L227.055 36.7858C225.465 34.9399 224.229 33.2698 223.345 31.7755C222.55 30.2812 222.153 28.5672 222.153 26.6334C222.153 24.348 222.992 22.4582 224.67 20.9639C226.437 19.3817 228.646 18.5907 231.296 18.5907C233.858 18.5907 236.066 19.206 237.921 20.4365C239.865 21.6671 241.72 23.4691 243.487 25.8423L257.003 13.053C255.678 10.8555 253.779 8.78991 251.305 6.85613C248.832 4.83445 245.916 3.20832 242.559 1.97773C239.202 0.659245 235.36 0 231.031 0H279V96Z" fill="#001091"/>
<path d="M224.563 96.1176L279 96L255.214 96.0514L248.813 87.5971C247.828 88.4241 246.715 89.2426 245.475 90.0526C242.736 91.8106 239.556 93.2609 235.934 94.4036C232.408 95.5439 228.617 96.1152 224.563 96.1176Z" fill="#001091"/>
<path d="M235.85 73.4249L218.785 54.7683C216.814 55.8928 215.286 57.2822 214.202 58.9363C212.877 60.958 212.214 63.3752 212.214 66.188C212.214 68.4734 212.7 70.4951 213.672 72.2531C214.732 73.9231 216.234 75.2416 218.177 76.2085C220.121 77.1754 222.418 77.6588 225.068 77.6588C228.071 77.6588 230.633 77.0435 232.753 75.813C233.877 75.1421 234.909 74.3461 235.85 73.4249Z" fill="#001091"/>
<path d="M223.353 96.1176H224.51C224.124 96.1174 223.741 96.1127 223.361 96.1034L223.353 96.1176Z" fill="#E10D0E"/>
<path d="M229.924 0.0164921C230.29 0.00549736 230.659 0 231.031 0C235.36 0 239.202 0.659245 242.559 1.97773C245.916 3.20832 248.832 4.83445 251.305 6.85613C253.779 8.78991 255.678 10.8555 257.003 13.053L243.487 25.8423C241.72 23.4691 239.865 21.6671 237.921 20.4365C236.066 19.206 233.858 18.5907 231.296 18.5907C228.646 18.5907 226.437 19.3817 224.67 20.9639C222.992 22.4582 222.153 24.348 222.153 26.6334C222.153 28.5672 222.55 30.2812 223.345 31.7755C224.229 33.2698 225.465 34.9399 227.055 36.7858L279 96V0H231.031H229.929L229.924 0.0164921Z" fill="#E10D0E"/>
<path d="M224.699 96.1173L255.234 96.0514L248.813 87.5971C247.828 88.4241 246.715 89.2426 245.475 90.0526C242.736 91.8106 239.556 93.2609 235.934 94.4036C232.447 95.5312 228.702 96.1024 224.699 96.1173Z" fill="#E10D0E"/>
</svg>
