<svg width="149" height="57" viewBox="0 0 149 57" fill="none" xmlns="http://www.w3.org/2000/svg">
<mask id="mask0_170_350" style="mask-type:alpha" maskUnits="userSpaceOnUse" x="0" y="0" width="149" height="57">
<rect width="149" height="57" fill="#C4C4C4"/>
</mask>
<g mask="url(#mask0_170_350)">
<path d="M72.9441 6.91414e-06H149.476V57H72.9441V6.91414e-06Z" fill="#E23022"/>
<path d="M0 6.91414e-06H72.9441V57H0V6.91414e-06Z" fill="#010092"/>
<path d="M72.9441 6.91414e-06H149.476V57H72.9441V6.91414e-06Z" fill="#E23022"/>
<path d="M0 6.91414e-06H72.9441V57H0V6.91414e-06Z" fill="#010092"/>
<path d="M91.9502 26.338H102.861C102.011 31.647 99.5284 39.5142 94.8292 46.2415L94.8385 46.2343L106.07 57.6266H80.9948C78.0875 58.7483 74.8485 59.3916 71.2516 59.3916C49.3499 59.3916 49.4254 41.339 49.4297 40.3248C49.4297 40.3136 49.4297 40.3045 49.4297 40.2975C49.4297 40.2788 49.4293 40.2523 49.4288 40.2184C49.4114 39.0888 49.2666 29.7183 59.8593 24.7334C58.4152 23.0219 55.5271 18.2832 55.5271 13.0203C55.5271 6.44162 60.0198 -2.70429 72.5352 -2.38338C85.0507 -2.06247 89.0001 7.5 88.0001 15C86.9575 20.5 86.0134 23.4498 76.8675 27.6216C80.7184 31.6009 85.5321 36.5536 87.4575 38.5325C88.5807 37.035 91.0516 32.4994 91.9502 26.338Z" fill="white"/>
</g>
</svg>
